<svg xmlns="http://www.w3.org/2000/svg" viewBox="0 0 64 64" role="img" aria-label="SLP Trust favicon">
  <defs>
    <linearGradient id="bg" x1="0" y1="0" x2="1" y2="1">
      <stop offset="0%" stop-color="#f59e0b" />
      <stop offset="100%" stop-color="#c2410c" />
    </linearGradient>
    <linearGradient id="accent" x1="0" y1="0" x2="1" y2="1">
      <stop offset="0%" stop-color="#fef3c7" />
      <stop offset="100%" stop-color="#ffffff" />
    </linearGradient>
  </defs>
  <rect width="64" height="64" rx="16" fill="url(#bg)" />
  <path d="M14 24h36L32 12 14 24Z" fill="#7c2d12" />
  <path d="M18 28h6v18h-6V28Zm11 0h6v18h-6V28Zm11 0h6v18h-6V28Z" fill="url(#accent)" />
  <path d="M12 48h40v4H12Z" fill="#7c2d12" />
  <path d="M30.5 18.5c1.4-1.2 3.2-1.2 4.8 0 1.1.9 1.4 2.2.8 3.4-.4.9-1.1 1.5-2.3 2l-1.8.7c-.9.3-1.4.7-1.4 1.4 0 .8.7 1.4 1.7 1.5 1 .1 1.9-.2 2.7-.9l1.6 2.2c-1.2 1-2.6 1.5-4.2 1.6V33h-2.4v-2.3c-2.3-.6-3.8-2.2-3.8-4.4 0-2.1 1.1-3.5 3.5-4.4l2-.7c1-.4 1.4-.7 1.4-1.3 0-.7-.6-1.1-1.5-1.2-.8 0-1.6.3-2.4.9l-1.7-2.1Z" fill="#14532d" />
</svg>
